<?xml version="1.0" encoding="utf-8"?>
<!-- Generator: Adobe Illustrator 16.0.4, SVG Export Plug-In . SVG Version: 6.00 Build 0)  -->
<!DOCTYPE svg PUBLIC "-//W3C//DTD SVG 1.1//EN" "http://www.w3.org/Graphics/SVG/1.1/DTD/svg11.dtd">
<svg version="1.1" id="Layer_1" xmlns="http://www.w3.org/2000/svg" xmlns:xlink="http://www.w3.org/1999/xlink" x="0px" y="0px"
	 width="283.46px" height="255.121px" viewBox="0 0 283.46 255.121" enable-background="new 0 0 283.46 255.121"
	 xml:space="preserve">
<path fill="none" stroke="#000000" stroke-miterlimit="10" d="M141.729,67.689c50.942,0,92.239,41.297,92.239,92.24
	c0,50.94-41.297,92.238-92.239,92.238S49.49,210.87,49.49,159.929C49.491,108.986,90.788,67.689,141.729,67.689z"/>
<g>
	<path fill="none" stroke="#000000" stroke-miterlimit="10" d="M146.782,27.136l-14.008-10.093l13.351-12.17
		c0.205-0.196,0.336-0.472,0.336-0.778c0-0.586-0.472-1.061-1.055-1.072l-0.002-0.007l-29.227,0.007
		c-0.005,0-0.009-0.002-0.015-0.002c-0.586,0-1.06,0.471-1.072,1.053l-0.011,0.01v24.075v23.857l0.011,0.011
		c0.012,0.583,0.486,1.052,1.072,1.052c0.006,0,0.011-0.001,0.017-0.001l29.225,0.006l0.002-0.006
		c0.583-0.011,1.055-0.486,1.055-1.072c0-0.307-0.131-0.581-0.336-0.777l-13.351-12.195l13.951-10.053
		c0.33-0.183,0.555-0.531,0.555-0.936C147.279,27.66,147.081,27.327,146.782,27.136z"/>
	<path fill="none" stroke="#000000" stroke-miterlimit="10" d="M188.841,15.844c0.594,0,1.074-0.48,1.074-1.074V4.027
		c0-0.592-0.48-1.074-1.074-1.074h-30.699c-0.595,0-1.075,0.482-1.075,1.074v47.91c0,0.592,0.48,1.073,1.075,1.073h13.95
		c0.593,0,1.074-0.481,1.074-1.073V38.401h15.675c0.594,0,1.074-0.48,1.074-1.072V26.585c0-0.594-0.48-1.074-1.074-1.074h-15.675
		v-9.667h15.675V15.844z"/>
</g>
<line fill="none" stroke="#000000" stroke-miterlimit="10" x1="49.599" y1="159.929" x2="233.969" y2="159.929"/>
<line fill="none" stroke="#000000" stroke-miterlimit="10" x1="61.74" y1="113.809" x2="221.826" y2="113.809"/>
<line fill="none" stroke="#000000" stroke-miterlimit="10" x1="61.74" y1="206.048" x2="221.826" y2="206.048"/>
<line fill="none" stroke="#000000" stroke-miterlimit="10" x1="141.784" y1="67.744" x2="141.784" y2="252.114"/>
<path fill="none" stroke="#000000" stroke-miterlimit="10" d="M141.729,67.689c26.611,0,48.187,41.297,48.187,92.24
	c0,50.94-21.573,92.238-48.187,92.238s-48.187-41.298-48.187-92.238C93.544,108.986,115.117,67.689,141.729,67.689z"/>
<line fill="none" stroke="#000000" stroke-miterlimit="10" x1="115.081" y1="51.202" x2="115.081" y2="71.6"/>
<line fill="none" stroke="#000000" stroke-miterlimit="10" x1="157.066" y1="51.54" x2="157.066" y2="68.822"/>
</svg>
